<svg id="Layer_1" data-name="Layer 1" xmlns="http://www.w3.org/2000/svg" viewBox="0 0 512.6 617.2"><defs><style>.cls-1{fill:#fff;}</style></defs><path class="cls-1" d="M238.6,381.5H215.3a6.7,6.7,0,0,1-6.7-6.7,6.56,6.56,0,0,1,2.3-5,11.54,11.54,0,0,0,3.5-5.4L228.6,319a4,4,0,0,1,7.6,2.4L222,366.8a20.66,20.66,0,0,1-3.6,6.7h20.1a13.36,13.36,0,0,1,.6-4,15.33,15.33,0,0,1,1.6-3.7l8.1-13.7a4,4,0,1,1,6.9,4.1l-8.1,13.7a5.63,5.63,0,0,0-.7,1.8,6.28,6.28,0,0,0-.3,1.9,8,8,0,0,1-8,7.9Zm-22.4-5.7Z"/><path class="cls-1" d="M283.8,381.5H262.5a7.34,7.34,0,0,1-5.8-2.9,7.18,7.18,0,0,1-1.1-6.5,5.82,5.82,0,0,0,.3-1.4c-1.6-3.2-3.2-6.6-5-10.2-7.8-16.1-18.5-38.1-25.8-41.3-.4-.2-3-1-13.2-.1a4,4,0,1,1-.7-7.9c11.4-1,15.2,0,17.1.8,9.3,4.1,18.3,21.3,29.8,45.2l5.1,10.5c1,1.9.7,4.1.2,6h19c-.6-4.5-1.5-11.9-1.9-18.7-.7-12.2.7-15.5,3.3-17,5.5-3.3,21.4-3.3,28-3.1a4.08,4.08,0,0,1,3.9,4.1,4,4,0,0,1-4.1,3.9c-12.7-.3-20.4.8-23,1.7-.7,3.1-.3,13.7,1.8,29.4a6.73,6.73,0,0,1-1.6,5.4,7.18,7.18,0,0,1-5,2.1Zm-20.6-7.1Zm-7.1-3.3Z"/><path class="cls-1" d="M160.9,328.2c-7.4,0-12-4.8-16.1-9.9-2-2.5-3.9-5.4-3.4-8.6.5-3,2.9-4.6,4.8-5.8,2.6-1.7,5.1-3.3,5.7-8.9a24.62,24.62,0,0,0,.2-2.6c1-10.6,1.3-14.7,6.8-25.4-.3-8.5,2.8-14.4,9.5-17.9,4.5-2.4,9.7-1.3,13.5-.5a10.11,10.11,0,0,0,2.3.4c1.9-.2,10.3-2.2,19.2-4.2,20.4-4.8,54.6-12.8,86.2-17.7a3.95,3.95,0,0,1,1.2,7.8c-31.3,4.8-65.3,12.8-85.6,17.6-16.6,3.9-20,4.6-21.8,4.4-1-.1-2-.4-3.2-.6-2.7-.6-6.1-1.3-8.1-.3-3.5,1.8-5.7,4.5-5.2,11.5a5.22,5.22,0,0,1-.4,2.1c-5.2,10-5.4,12.9-6.4,23.4a21.12,21.12,0,0,0-.2,2.6c-.9,9.5-6.2,12.9-9.3,14.9l-.9.6a15.45,15.45,0,0,0,1.4,2c5.4,6.7,8.3,8,14.2,6.1,5.4-1.7,17.3-4.3,28.8-6.1a4,4,0,1,1,1.3,7.9c-12.5,2-23.3,4.5-27.6,5.9a19.26,19.26,0,0,1-6.9,1.3Zm23.4-79Z"/><path class="cls-1" d="M385.2,381.5H363.8a7.34,7.34,0,0,1-5.8-2.9,7.18,7.18,0,0,1-1.1-6.5,7,7,0,0,0,.3-1.4c-1.6-3.2-3.3-6.7-5-10.3-1.8-3.8-3.8-7.7-5.7-11.6-.8-.9-5.3-3.4-18.3-5a4,4,0,0,1,.9-7.9c20.2,2.5,23.2,7.2,24.1,8.8.1.1.1.2.2.3,2,4,4,8,5.9,12,1.8,3.8,3.5,7.3,5.2,10.6,1,1.9.7,4.1.2,6h19.1c-1.6-13.2-5.2-45.5-5.9-56.2-.5-7.2-.2-14.9,0-23,.7-23.2,1.5-47.2-16.1-58.5-3.5-2.2-9-3.7-16.5-4.4a4,4,0,1,1,.7-7.9c8.9.8,15.5,2.6,20.1,5.6,21.4,13.7,20.5,41.2,19.8,65.5-.2,7.9-.5,15.3,0,22.2.7,10.9,4.5,45,6,57.1a6.72,6.72,0,0,1-6.7,7.5Zm-1.2-6.7Zm-26.6-3.7Z"/><path class="cls-1" d="M305.7,233a4.08,4.08,0,0,1-4-3.5,3.89,3.89,0,0,1,3.5-4.4c8.6-1,16.5-1.7,23.4-1.9a4,4,0,0,1,.3,7.9c-6.7.2-14.4.9-22.7,1.9Z"/><path class="cls-1" d="M156.2,201.6a12.5,12.5,0,1,1,12.5-12.5A12.5,12.5,0,0,1,156.2,201.6Zm0-17a4.5,4.5,0,1,0,4.5,4.5A4.48,4.48,0,0,0,156.2,184.6Z"/><path class="cls-1" d="M219,227a12.5,12.5,0,1,1,12.5-12.5A12.5,12.5,0,0,1,219,227Zm0-17a4.5,4.5,0,1,0,4.5,4.5A4.48,4.48,0,0,0,219,210Z"/><path class="cls-1" d="M297.5,239.5A12.5,12.5,0,1,1,310,227,12.5,12.5,0,0,1,297.5,239.5Zm0-17A4.5,4.5,0,1,0,302,227,4.55,4.55,0,0,0,297.5,222.5Z"/><path class="cls-1" d="M168.1,363.3a12.5,12.5,0,1,1,12.5-12.5A12.5,12.5,0,0,1,168.1,363.3Zm0-17a4.5,4.5,0,1,0,4.5,4.5A4.55,4.55,0,0,0,168.1,346.3Z"/><path class="cls-1" d="M320.3,351.1a12.5,12.5,0,1,1,12.5-12.5A12.5,12.5,0,0,1,320.3,351.1Zm0-17a4.5,4.5,0,1,0,4.5,4.5A4.48,4.48,0,0,0,320.3,334.1Z"/><path class="cls-1" d="M375.7,207.8a12.5,12.5,0,1,1,12.5-12.5A12.5,12.5,0,0,1,375.7,207.8Zm0-17a4.5,4.5,0,1,0,4.5,4.5A4.61,4.61,0,0,0,375.7,190.8Z"/><path class="cls-1" d="M184.6,322.9H184c-3.6-.6-15.9-2.9-23.1-9.1-6.8-5.9-9.2-9.9-9.8-11a4,4,0,1,1,7.1-3.7c.1.1,1.8,3.4,8,8.7,5.8,5.1,17.7,7,19.1,7.3a3.88,3.88,0,0,1,3.3,4.5A4.07,4.07,0,0,1,184.6,322.9Z"/><path class="cls-1" d="M393,448.7H143.9a11.39,11.39,0,0,1-11.4-11.4V394.8a4,4,0,1,1,8,0v42.5a3.48,3.48,0,0,0,3.5,3.5H393a3.48,3.48,0,0,0,3.5-3.5V394.8a4,4,0,1,1,8,0v42.5A11.61,11.61,0,0,1,393,448.7Z"/><path class="cls-1" d="M214.9,434.2c-10.4,0-18.7-5.4-26.1-10.1-5.7-3.7-11-7.1-16.6-7.7-4.2-.5-8.6,1.6-13.3,3.7-7.1,3.3-16,7.3-24.9,1.1a3.9,3.9,0,0,1-1.7-3.3V385a11.39,11.39,0,0,1,11.4-11.4H393A11.39,11.39,0,0,1,404.4,385v32.9a4,4,0,0,1-2.8,3.8c-9.5,3-15.4-1-20.5-4.5a32.66,32.66,0,0,0-7.5-4.2c-4.8-1.7-9.8-1.5-15.9.7a4,4,0,1,1-2.7-7.5c7.9-2.9,14.7-3.1,21.3-.7a42.67,42.67,0,0,1,9.3,5.1c3.9,2.7,6.7,4.6,10.9,4.1V384.9a3.48,3.48,0,0,0-3.5-3.5H143.9a3.48,3.48,0,0,0-3.5,3.5v30.7c4.3,2,8.8.2,15.3-2.8,5.2-2.4,11.1-5.1,17.5-4.4,7.4.8,13.8,5,20,9,7,4.5,13.7,8.8,21.8,8.8,11.6,0,21.7-4.6,31.5-9,8.6-3.9,16.7-7.6,25.2-8,9-.4,17.2,3.1,25.1,6.5,7.3,3.1,14.1,6.1,21.2,5.9,6.9-.2,13.7-3.6,21.2-7.7a4,4,0,0,1,3.8,7c-8.1,4.4-16.1,8.4-24.8,8.6s-16.9-3.2-24.6-6.5c-7.4-3.2-14.4-6.2-21.6-5.8-7,.3-14.5,3.7-22.3,7.3C239.6,429,228.2,434.2,214.9,434.2Z"/><path class="cls-1" d="M20.1,399.8v-3l9.1-11.1a4.71,4.71,0,0,0,1.3-3.2,3.33,3.33,0,0,0-3.5-3.6c-1.8,0-3.5,1-3.5,3.7H20.1c0-4,2.9-6.7,6.9-6.7s6.9,2.6,6.9,6.7c0,2.1-.8,3.3-2.2,5.1l-7.4,9.1H34v3Z"/><path class="cls-1" d="M51.9,400a6.51,6.51,0,0,1-6.8-6.8V382.7a6.56,6.56,0,0,1,6.8-6.8,6.64,6.64,0,0,1,6.9,6.8v10.5A6.53,6.53,0,0,1,51.9,400Zm3.5-17.2c0-2.3-1.3-3.9-3.5-3.9s-3.4,1.6-3.4,3.9v10.3c0,2.3,1.3,3.9,3.4,3.9s3.5-1.6,3.5-3.9Z"/><path class="cls-1" d="M450,400v-3l9.1-11.1a4.71,4.71,0,0,0,1.3-3.2,3.33,3.33,0,0,0-3.5-3.6c-1.8,0-3.5,1-3.5,3.7H450c0-4,2.9-6.7,6.9-6.7s6.9,2.6,6.9,6.7c0,2.1-.8,3.3-2.2,5.1l-7.4,9.1h9.7v3Z"/><path class="cls-1" d="M475.46,400v-3l9.1-11.1a4.71,4.71,0,0,0,1.3-3.2,3.33,3.33,0,0,0-3.5-3.6c-1.8,0-3.5,1-3.5,3.7h-3.4c0-4,2.9-6.7,6.9-6.7s6.9,2.6,6.9,6.7c0,2.1-.8,3.3-2.2,5.1l-7.4,9.1h9.7v3Z"/><path class="cls-1" d="M35.27,224.78l4.26-16.48,9.73,2.51a17.73,17.73,0,0,1,10.8,7.88,16.65,16.65,0,0,1,1.92,13A17.23,17.23,0,0,1,49.63,244c-.81.15-1.58.28-2.31.38a14.63,14.63,0,0,1-2.72,0A85.93,85.93,0,0,1,33.38,242a83.26,83.26,0,0,1-11-3.36,13.88,13.88,0,0,1-4.16-2.73A16.72,16.72,0,0,1,13.67,229a17.24,17.24,0,0,1,6.58-19.69,18.83,18.83,0,0,1,11.46-2.74L29.78,214A11,11,0,0,0,24,215.84a9.33,9.33,0,0,0-3.49,5.21,9.82,9.82,0,0,0-.08,4.53,9.29,9.29,0,0,0,1.71,3.56A8.41,8.41,0,0,0,25.68,232a61.17,61.17,0,0,0,9.51,3,59.26,59.26,0,0,0,9.71,2,8.27,8.27,0,0,0,4.51-.77,8.62,8.62,0,0,0,3.16-2.31,8.23,8.23,0,0,0,2.18-4,9.12,9.12,0,0,0-1.14-7.53A10.57,10.57,0,0,0,47,217.73l-2.5-.65-2.45,9.46Z"/><path class="cls-1" d="M30.14,170.18l13.42-27.49,6.33,3.09-10.23,21L52.37,173l8.73-17.91,6,2.91-8.74,17.91,13.08,6.38,10.24-21,6.33,3.1L74.57,191.85Z"/><path class="cls-1" d="M71.64,112.34l-8.06,10.35-5.25-4.08L78.92,92.18l5.24,4.08-8.07,10.36,33.76,26.28-4.45,5.72Z"/><path class="cls-1" d="M152.52,77.23A20.66,20.66,0,0,0,166.82,75q8.12-4.62,5-10.6-2.59-4.87-8.67-2.82l-6,2.25q-5.91,2.05-10.5.39a13.35,13.35,0,0,1-7.32-6.43,13.76,13.76,0,0,1-1.38-11.16q1.64-5.4,8.1-9a26.44,26.44,0,0,1,16.06-3l-.58,7.34a21.45,21.45,0,0,0-12.22,2.38,8.81,8.81,0,0,0-4.06,4.21,6.48,6.48,0,0,0,.48,5.85A5.53,5.53,0,0,0,149,57a9.11,9.11,0,0,0,5.7-.35c1.26-.43,3-1.07,5.09-1.91q6.36-2.4,11.13-.42a14.31,14.31,0,0,1,7.23,6.55q6.52,12.61-7.79,20.7a26.7,26.7,0,0,1-19.27,2.9Z"/><path class="cls-1" d="M200,41.34a83.64,83.64,0,0,1-1.63-11.44,13.84,13.84,0,0,1,.71-4.94,16.93,16.93,0,0,1,4.38-7,16.08,16.08,0,0,1,8.75-4.44,16.43,16.43,0,0,1,16.34,6,11.54,11.54,0,0,1,2.51,4.33,99.33,99.33,0,0,1,2.53,11.25,101.27,101.27,0,0,1,1.68,11.34,11.66,11.66,0,0,1-.78,5,15.78,15.78,0,0,1-4.25,6.93,17.18,17.18,0,0,1-18.62,3.47A16.48,16.48,0,0,1,205,56.93c-.48-.67-.92-1.32-1.32-1.93a13.63,13.63,0,0,1-1.13-2.48A84.29,84.29,0,0,1,200,41.34ZM207.12,40a59.35,59.35,0,0,0,2.33,9.62,9.24,9.24,0,0,0,6,5.65,8.34,8.34,0,0,0,4.54.3,8.72,8.72,0,0,0,4.22-1.93,8,8,0,0,0,2.39-3,8.85,8.85,0,0,0,1.15-4.46,64.89,64.89,0,0,0-1.33-9.81,64.5,64.5,0,0,0-2.31-9.7A8.67,8.67,0,0,0,221.49,23a8.71,8.71,0,0,0-3.31-2,10.37,10.37,0,0,0-4.62-.21,9.8,9.8,0,0,0-4.14,1.84,9.26,9.26,0,0,0-2.51,3.06,8.28,8.28,0,0,0-1.09,4.38A61.21,61.21,0,0,0,207.12,40Z"/><path class="cls-1" d="M263.6,34.43a84.74,84.74,0,0,1,2.27-11.34,13.8,13.8,0,0,1,2.32-4.42,16.72,16.72,0,0,1,6.44-5.15,16.19,16.19,0,0,1,9.74-1.29,16.46,16.46,0,0,1,13.42,11.08,11.64,11.64,0,0,1,.93,4.92,99.27,99.27,0,0,1-1.35,11.45,99.49,99.49,0,0,1-2.19,11.26,11.76,11.76,0,0,1-2.39,4.47,15.93,15.93,0,0,1-6.31,5.12,16.67,16.67,0,0,1-9.85,1.35,17.22,17.22,0,0,1-13.45-11.09c-.23-.79-.44-1.54-.61-2.25a14.51,14.51,0,0,1-.24-2.72A86.31,86.31,0,0,1,263.6,34.43Zm7.17,1.11a58.67,58.67,0,0,0-1,9.85,8.37,8.37,0,0,0,1.2,4.42,8.68,8.68,0,0,0,2.61,2.91,8.3,8.3,0,0,0,4.19,1.79,8.71,8.71,0,0,0,4.62-.41,8,8,0,0,0,3.24-2,8.77,8.77,0,0,0,2.56-3.83,63.61,63.61,0,0,0,2-9.69,65.7,65.7,0,0,0,1.05-9.91A8.75,8.75,0,0,0,290,24.3a8.77,8.77,0,0,0-2.47-3,10.28,10.28,0,0,0-4.29-1.73,9.74,9.74,0,0,0-4.51.36A9.31,9.31,0,0,0,275.3,22a8.37,8.37,0,0,0-2.48,3.78A60.93,60.93,0,0,0,270.77,35.54Z"/><path class="cls-1" d="M340.87,36.69l-11.79-5.78L332,25l30.09,14.74-2.92,6-11.8-5.78L328.55,78.3,322,75.11Z"/><path class="cls-1" d="M391.13,97.12,377.05,84.38l-14.49,16-5.38-4.86,33.17-36.65,5.38,4.86L381.5,79.46,395.59,92.2l14.22-15.71,5.37,4.86L382,118l-5.37-4.86Z"/><path class="cls-1" d="M438.62,109.51l4.26,5.87-40,29-4.25-5.87Z"/><path class="cls-1" d="M461.9,144.92l2.9,6.19-22.62,34.54.06.12,31.82-14.9,3.07,6.56-44.76,21-2.91-6.22,22.63-34.51,0-.12-31.82,14.91-3.08-6.57Z"/><path class="cls-1" d="M470.71,232.63l3.77,16.59-9.81,2.23a17.72,17.72,0,0,1-13.2-2,16.66,16.66,0,0,1-7.68-10.71,16.45,16.45,0,0,1,.7-9.82,16.28,16.28,0,0,1,4.65-6.77c.64-.51,1.27-1,1.87-1.41a13.65,13.65,0,0,1,2.43-1.22,133.94,133.94,0,0,1,22.42-5.09,13.89,13.89,0,0,1,4.95.53A16.66,16.66,0,0,1,488,219a17.24,17.24,0,0,1,3.17,20.52,18.94,18.94,0,0,1-8.93,7.68l-1.7-7.5a11,11,0,0,0,4.27-4.28,9.26,9.26,0,0,0,.72-6.23,9.8,9.8,0,0,0-2-4.06,9.19,9.19,0,0,0-3.15-2.38,8.27,8.27,0,0,0-4.42-.92,60.83,60.83,0,0,0-9.83,1.69,60.14,60.14,0,0,0-9.52,2.7,8.35,8.35,0,0,0-3.66,2.76,8.44,8.44,0,0,0-1.75,3.5,8.25,8.25,0,0,0-.12,4.54,9.13,9.13,0,0,0,4.47,6.17,10.59,10.59,0,0,0,8,1.1l2.52-.57-2.17-9.53Z"/><path class="cls-1" d="M117.2,521a10.35,10.35,0,0,0,2.7,6.78q3.18,3.47,5.76,1.26,2.11-1.83.42-4.58c-.54-.82-1.14-1.71-1.78-2.69a7.86,7.86,0,0,1-1.37-5.12,6.76,6.76,0,0,1,2.34-4.32,7,7,0,0,1,5.34-1.93,8,8,0,0,1,5.34,3,13.3,13.3,0,0,1,3.27,7.56l-3.67.54a10.82,10.82,0,0,0-2.54-5.75,4.45,4.45,0,0,0-2.52-1.52,3.26,3.26,0,0,0-2.82.89,2.76,2.76,0,0,0-.92,1.9,4.54,4.54,0,0,0,.8,2.76c.36.57.86,1.34,1.51,2.29a7.45,7.45,0,0,1,1.46,5.42,7.27,7.27,0,0,1-2.41,4.3q-5.48,4.61-11.05-1.52a13.46,13.46,0,0,1-3.58-9.14Z"/><path class="cls-1" d="M154.53,532.27l2.9,2.23-9.81,12.74a5.19,5.19,0,0,0-1.24,3.94,4.65,4.65,0,0,0,1.91,3.25,4.75,4.75,0,0,0,3.66,1,5.26,5.26,0,0,0,3.47-2.23l9.81-12.74,2.89,2.23-10.05,13.06a8.64,8.64,0,0,1-15.4-4,8.15,8.15,0,0,1,1.8-6.47Z"/><path class="cls-1" d="M176.54,569.86a10.41,10.41,0,0,0,5.14,5.18c2.85,1.3,4.79.93,5.8-1.1.81-1.67.35-3.13-1.41-4.37l-2.69-1.79a7.83,7.83,0,0,1-3.26-4.17,6.74,6.74,0,0,1,.46-4.89,7,7,0,0,1,4.15-3.87,8,8,0,0,1,6.08.65,13.2,13.2,0,0,1,6,5.67l-3.16,1.93a10.86,10.86,0,0,0-4.59-4.29,4.44,4.44,0,0,0-2.92-.41,3.31,3.31,0,0,0-2.25,1.92,2.83,2.83,0,0,0-.1,2.11,4.65,4.65,0,0,0,1.83,2.23c.55.38,1.31.89,2.28,1.51a7.45,7.45,0,0,1,3.46,4.42,7.16,7.16,0,0,1-.54,4.89q-3.22,6.39-10.76,2.94a13.45,13.45,0,0,1-6.87-7Z"/><path class="cls-1" d="M225.58,581.56l-9.38-1.93L214,590.3l-3.58-.73,5-24.41,3.58.73-2.14,10.46,9.38,1.93,2.14-10.47,3.58.74L227,593l-3.58-.73Z"/><path class="cls-1" d="M251.35,569.79l3.65-.07.5,24.91-3.65.07Z"/><path class="cls-1" d="M296.15,562.85l8.7-3.43a7.4,7.4,0,0,1,5.66-.24A6.66,6.66,0,0,1,314,563a6,6,0,0,1,.41,3,4.9,4.9,0,0,1-.55,1.58,7.73,7.73,0,0,1-1.22,1.7l0,.07a4.84,4.84,0,0,1,3.56.89,7.13,7.13,0,0,1,2.2,3,6.89,6.89,0,0,1,.05,5.47,6.33,6.33,0,0,1-3.7,3.57L305.27,586Zm4.63,1.78,2.62,6.66,4.92-1.93a3.71,3.71,0,0,0,2.34-2.09,3.44,3.44,0,0,0,0-2.69,3.7,3.7,0,0,0-1.83-2,4.07,4.07,0,0,0-3.12.14Zm3.84,9.78,2.75,7,5.25-2.07a3.73,3.73,0,0,0,2.36-2.16,3.84,3.84,0,0,0-.07-2.77,3.56,3.56,0,0,0-5-2Z"/><path class="cls-1" d="M348.88,557.1l-7.57,5.16,1.61,5.65-3.2,2.18-6.78-25.53,2.53-1.73,21.28,15.65-3.19,2.18Zm-2.75-2.17-9-7-.06,0,3.25,11Z"/><path class="cls-1" d="M355.69,526.71,362.3,520a7.27,7.27,0,0,1,4.62-2.37,6.72,6.72,0,0,1,5.47,2,6.93,6.93,0,0,1,1.66,8.16l11.8,3.76-3,3.1-11.1-3.9-3.28,3.34,7.6,7.46-2.56,2.61Zm10.36,5,3.88-4a3.84,3.84,0,0,0,0-5.71A3.37,3.37,0,0,0,367.1,521a4.13,4.13,0,0,0-2.44,1.38l-4,4.09Z"/></svg>