<svg width="32" height="32" viewBox="0 0 32 32" fill="none" xmlns="http://www.w3.org/2000/svg">
<path d="M25.7032 6.76915C23.9186 5.95029 22.0048 5.34699 20.0039 5.00145C19.9674 4.99478 19.931 5.01145 19.9123 5.04478C19.6661 5.48253 19.3935 6.05361 19.2026 6.50248C17.0505 6.18028 14.9094 6.18028 12.8014 6.50248C12.6104 6.04363 12.3279 5.48253 12.0807 5.04478C12.0619 5.01256 12.0255 4.99589 11.9891 5.00145C9.98923 5.34588 8.07549 5.94918 6.28976 6.76915C6.2743 6.77581 6.26105 6.78693 6.25225 6.80137C2.62229 12.2245 1.62789 17.5142 2.11571 22.7385C2.11792 22.764 2.13226 22.7885 2.15213 22.804C4.54708 24.5628 6.86699 25.6305 9.14383 26.3383C9.18027 26.3494 9.21887 26.3361 9.24206 26.3061C9.78065 25.5706 10.2607 24.795 10.6724 23.9795C10.6967 23.9317 10.6735 23.8751 10.6238 23.8562C9.86232 23.5673 9.1372 23.2151 8.43968 22.8151C8.38451 22.7829 8.3801 22.704 8.43085 22.6662C8.57763 22.5562 8.72446 22.4418 8.86461 22.3262C8.88997 22.3051 8.92531 22.3007 8.95512 22.314C13.5375 24.4062 18.4985 24.4062 23.0268 22.314C23.0566 22.2996 23.0919 22.304 23.1184 22.3251C23.2586 22.4407 23.4054 22.5562 23.5533 22.6662C23.604 22.704 23.6007 22.7829 23.5455 22.8151C22.848 23.2229 22.1229 23.5673 21.3603 23.8551C21.3106 23.874 21.2885 23.9317 21.3128 23.9795C21.7333 24.7939 22.2134 25.5694 22.742 26.3049C22.7641 26.3361 22.8038 26.3494 22.8403 26.3383C25.1282 25.6305 27.4481 24.5628 29.843 22.804C29.864 22.7885 29.8772 22.7651 29.8794 22.7396C30.4633 16.6998 28.9016 11.4534 25.7396 6.80247C25.7319 6.78693 25.7186 6.77581 25.7032 6.76915ZM11.3567 19.5575C9.97708 19.5575 8.84032 18.2909 8.84032 16.7354C8.84032 15.1799 9.95504 13.9133 11.3567 13.9133C12.7694 13.9133 13.8951 15.191 13.873 16.7354C13.873 18.2909 12.7583 19.5575 11.3567 19.5575ZM20.6605 19.5575C19.281 19.5575 18.1442 18.2909 18.1442 16.7354C18.1442 15.1799 19.2589 13.9133 20.6605 13.9133C22.0732 13.9133 23.199 15.191 23.1769 16.7354C23.1769 18.2909 22.0732 19.5575 20.6605 19.5575Z" fill="white"/>
</svg>
