<svg width="32" height="32" viewBox="0 0 32 32" fill="none" xmlns="http://www.w3.org/2000/svg">
<path d="M18.0499 16.3036C18.0499 21.3312 14.0093 25.4068 9.02511 25.4068C4.04097 25.4068 0 21.3303 0 16.3036C0 11.2768 4.04067 7.19995 9.02511 7.19995C14.0096 7.19995 18.0499 11.2759 18.0499 16.3036Z" fill="white"/>
<path d="M27.9504 16.3035C27.9504 21.0359 25.9301 24.8738 23.4379 24.8738C20.9456 24.8738 18.9253 21.0359 18.9253 16.3035C18.9253 11.5711 20.9453 7.73315 23.4375 7.73315C25.9298 7.73315 27.9501 11.5698 27.9501 16.3035" fill="white"/>
<path d="M32 16.3036C32 20.5427 31.2896 23.9813 30.4129 23.9813C29.5363 23.9813 28.8262 20.5437 28.8262 16.3036C28.8262 12.0636 29.5366 8.62598 30.4129 8.62598C31.2893 8.62598 32 12.0633 32 16.3036Z" fill="white"/>
</svg>
