<svg width="32" height="32" viewBox="0 0 32 32" fill="none" xmlns="http://www.w3.org/2000/svg">
<path d="M26.3282 9.45174C26.3387 9.69258 26.3387 9.92247 26.3387 10.1633C26.3493 17.4652 20.9846 25.8947 11.1738 25.8947C8.28026 25.8947 5.43948 25.0299 3 23.4097C3.42242 23.4644 3.84484 23.4863 4.26726 23.4863C6.6645 23.4863 8.99838 22.6543 10.8887 21.1107C8.60764 21.0669 6.60114 19.5233 5.90414 17.2682C6.70674 17.4324 7.53046 17.3996 8.31194 17.1697C5.83022 16.6661 4.04549 14.4 4.03493 11.7616C4.03493 11.7397 4.03493 11.7178 4.03493 11.696C4.77417 12.1229 5.60845 12.3637 6.45329 12.3856C4.11942 10.7654 3.39074 7.53594 4.80585 5.00709C7.5199 8.46647 11.5118 10.5574 15.7993 10.7873C15.3664 8.87152 15.9578 6.8572 17.3412 5.49972C19.485 3.40877 22.8643 3.51824 24.892 5.74057C26.0853 5.49972 27.2364 5.03993 28.2819 4.39404C27.8806 5.67488 27.0463 6.75868 25.9374 7.44836C26.9935 7.31699 28.0284 7.02141 29 6.58352C28.2819 7.70015 27.3737 8.66352 26.3282 9.45174Z" fill="white"/>
</svg>
