<svg width="24" height="24" viewBox="0 0 24 24" fill="none" xmlns="http://www.w3.org/2000/svg">
<path d="M10.3028 17.072H8.70239C8.58034 17.072 8.46328 17.0235 8.37698 16.9372C8.29067 16.8509 8.24219 16.7338 8.24219 16.6118C8.24207 16.5465 8.25614 16.482 8.28342 16.4227C8.3107 16.3634 8.35053 16.3107 8.40017 16.2683C8.51385 16.17 8.59723 16.0413 8.64057 15.8974L9.61594 12.779C9.64224 12.7155 9.6914 12.6641 9.75371 12.6351C9.81602 12.6061 9.88696 12.6014 9.95252 12.6221C10.0181 12.6428 10.0735 12.6874 10.1078 12.7469C10.1422 12.8065 10.1529 12.8768 10.138 12.9439L9.1626 16.0623C9.10936 16.2296 9.02552 16.3857 8.91532 16.5225H10.2959C10.2957 16.4293 10.3096 16.3367 10.3372 16.2477C10.3624 16.1585 10.3994 16.0731 10.4471 15.9936L11.0034 15.0526C11.0408 14.9897 11.1015 14.9443 11.1724 14.9262C11.2432 14.9082 11.3184 14.9191 11.3812 14.9564C11.444 14.9937 11.4895 15.0545 11.5075 15.1254C11.5256 15.1962 11.5147 15.2713 11.4774 15.3342L10.921 16.2752C10.898 16.3133 10.8817 16.3552 10.8729 16.3988C10.8594 16.441 10.8524 16.485 10.8523 16.5293C10.8505 16.6739 10.7918 16.8119 10.689 16.9135C10.5861 17.015 10.4474 17.072 10.3028 17.072Z" fill="white"/>
<path d="M13.4061 17.0724H11.9431C11.8658 17.0719 11.7898 17.0537 11.7207 17.0192C11.6516 16.9846 11.5914 16.9347 11.5447 16.8732C11.4973 16.8102 11.4658 16.7368 11.4526 16.6591C11.4395 16.5815 11.4451 16.5018 11.4691 16.4267C11.4799 16.3956 11.4868 16.3633 11.4897 16.3305C11.3798 16.1107 11.2699 15.8772 11.1463 15.6299C10.6105 14.5241 9.87557 13.0129 9.37416 12.7932C9.34668 12.7794 9.16809 12.7245 8.46748 12.7863C8.4293 12.7948 8.38974 12.7951 8.35144 12.7871C8.31314 12.7791 8.27699 12.763 8.24541 12.7399C8.21383 12.7169 8.18754 12.6873 8.16831 12.6532C8.14907 12.6191 8.13734 12.5814 8.13388 12.5424C8.13043 12.5034 8.13534 12.4642 8.14828 12.4272C8.16123 12.3903 8.18191 12.3566 8.20894 12.3283C8.23597 12.3 8.26873 12.2778 8.30502 12.2632C8.34132 12.2486 8.38031 12.242 8.4194 12.2437C9.20244 12.175 9.46345 12.2437 9.59395 12.2986C10.2327 12.5802 10.8509 13.7616 11.6408 15.4033L11.9911 16.1245C12.0598 16.255 12.0392 16.4061 12.0049 16.5366H13.3099C13.2687 16.2275 13.2069 15.7192 13.1794 15.2522C13.1314 14.4142 13.2275 14.1875 13.4061 14.0845C13.7839 13.8578 14.876 13.8578 15.3293 13.8715C15.4017 13.8747 15.4701 13.9059 15.52 13.9584C15.57 14.0109 15.5977 14.0807 15.5972 14.1532C15.5963 14.1892 15.5883 14.2248 15.5737 14.2578C15.5591 14.2908 15.5381 14.3206 15.5119 14.3454C15.4858 14.3703 15.455 14.3898 15.4213 14.4028C15.3876 14.4157 15.3517 14.422 15.3156 14.421C14.4433 14.4004 13.9144 14.476 13.7358 14.5378C13.6877 14.7507 13.7152 15.4788 13.8594 16.5572C13.869 16.6233 13.8641 16.6907 13.8452 16.7547C13.8262 16.8188 13.7936 16.8779 13.7495 16.9281C13.6583 17.0193 13.535 17.071 13.4061 17.0724Z" fill="white"/>
<path d="M4.96606 13.4146C4.45777 13.4146 4.14181 13.0849 3.86019 12.7346C3.72282 12.5629 3.59231 12.3637 3.62665 12.1439C3.661 11.9378 3.82585 11.8279 3.95635 11.7455C4.13494 11.6287 4.30666 11.5188 4.34787 11.1342C4.3556 11.0749 4.36019 11.0153 4.36161 10.9556C4.4303 10.2275 4.4509 9.94588 4.82868 9.21093C4.80808 8.62708 5.02101 8.22183 5.48121 7.98142C5.79031 7.81657 6.14748 7.89213 6.40849 7.94708C6.45991 7.96231 6.51293 7.97153 6.56647 7.97456C6.69698 7.96082 7.27395 7.82344 7.88527 7.68607C9.28649 7.35637 11.6356 6.80687 13.8061 6.4703C13.8755 6.46285 13.9452 6.48244 14.0005 6.52499C14.0558 6.56755 14.0926 6.62981 14.1033 6.69881C14.1139 6.76781 14.0975 6.83825 14.0575 6.89548C14.0175 6.9527 13.957 6.99231 13.8885 7.00606C11.7386 7.33576 9.40326 7.88526 8.00891 8.21496C6.8687 8.48284 6.63516 8.53092 6.51152 8.51718C6.44284 8.51032 6.37415 8.48971 6.29172 8.47597C6.10627 8.43476 5.87273 8.38668 5.73536 8.45537C5.49495 8.579 5.34384 8.76446 5.37818 9.24527C5.37907 9.29473 5.36972 9.34384 5.35071 9.38951C4.99353 10.0764 4.9798 10.2756 4.91111 10.9968C4.90285 11.056 4.89827 11.1156 4.89737 11.1754C4.83555 11.8279 4.47151 12.0615 4.25858 12.1988L4.19676 12.24C4.22514 12.2883 4.25729 12.3342 4.29292 12.3774C4.66383 12.8376 4.86303 12.9269 5.26828 12.7964C5.63919 12.6796 6.45657 12.5011 7.24648 12.3774C7.31844 12.3656 7.39215 12.3828 7.4514 12.4253C7.51066 12.4678 7.5506 12.5321 7.56244 12.6041C7.57428 12.676 7.55705 12.7498 7.51454 12.809C7.47203 12.8683 7.40773 12.9082 7.33577 12.92C6.47718 13.0574 5.73536 13.2291 5.44 13.3253C5.28883 13.3839 5.12817 13.4141 4.96606 13.4146V13.4146Z" fill="white"/>
<path d="M20.3711 17.075H18.9012C18.8239 17.0745 18.7479 17.0563 18.6788 17.0218C18.6097 16.9872 18.5495 16.9373 18.5028 16.8758C18.4554 16.8128 18.4239 16.7394 18.4107 16.6618C18.3976 16.5841 18.4032 16.5044 18.4272 16.4293C18.4374 16.3981 18.4443 16.3659 18.4478 16.3332C18.3379 16.1134 18.2212 15.873 18.1044 15.6257C17.9808 15.3647 17.8434 15.0968 17.7129 14.8289C17.6579 14.7671 17.3488 14.5954 16.4559 14.4855C16.39 14.4705 16.3319 14.4317 16.2928 14.3765C16.2537 14.3213 16.2363 14.2537 16.244 14.1865C16.2516 14.1193 16.2838 14.0573 16.3343 14.0124C16.3848 13.9674 16.4501 13.9427 16.5177 13.9429C17.9052 14.1146 18.1113 14.4374 18.1731 14.5473C18.1799 14.5542 18.1799 14.561 18.1868 14.5679C18.3242 14.8427 18.4616 15.1174 18.5921 15.3922C18.7157 15.6532 18.8325 15.8936 18.9492 16.1202C19.0179 16.2508 18.9973 16.4019 18.963 16.5324H20.2749C20.165 15.6257 19.9177 13.4071 19.8697 12.6721C19.8353 12.1776 19.8559 11.6487 19.8697 11.0923C19.9177 9.49879 19.9727 7.85029 18.7638 7.07412C18.5234 6.92301 18.1456 6.81998 17.6304 6.7719C17.5914 6.77359 17.5524 6.7669 17.5161 6.7523C17.4798 6.7377 17.447 6.71552 17.42 6.68724C17.393 6.65895 17.3723 6.62522 17.3593 6.5883C17.3464 6.55138 17.3415 6.51213 17.3449 6.47316C17.3484 6.43419 17.3601 6.3964 17.3794 6.36233C17.3986 6.32827 17.4249 6.2987 17.4565 6.27561C17.488 6.25252 17.5242 6.23644 17.5625 6.22845C17.6008 6.22046 17.6403 6.22074 17.6785 6.22927C18.2898 6.28422 18.7432 6.40786 19.0591 6.61392C20.5291 7.55494 20.4672 9.44384 20.4192 11.1129C20.4054 11.6556 20.3848 12.1639 20.4192 12.6378C20.4672 13.3865 20.7282 15.7287 20.8313 16.5598C20.8389 16.6247 20.8326 16.6904 20.8129 16.7526C20.7932 16.8149 20.7605 16.8722 20.717 16.9209C20.6736 16.9696 20.6202 17.0085 20.5606 17.0351C20.5009 17.0616 20.4364 17.0752 20.3711 17.075V17.075Z" fill="white"/>
<path d="M14.91 6.87236C14.8431 6.87172 14.7785 6.84713 14.7281 6.80303C14.6777 6.75893 14.6448 6.69824 14.6353 6.63195C14.6304 6.59619 14.6328 6.55982 14.6424 6.52502C14.6519 6.49022 14.6684 6.45772 14.6909 6.42947C14.7134 6.40123 14.7413 6.37783 14.7731 6.36069C14.8048 6.34354 14.8397 6.33301 14.8757 6.32973C15.4664 6.26104 16.009 6.21296 16.483 6.19922C16.5481 6.20679 16.6084 6.23741 16.6529 6.28555C16.6974 6.33369 16.7233 6.39617 16.7258 6.4617C16.7283 6.52724 16.7072 6.5915 16.6665 6.64287C16.6257 6.69425 16.5679 6.72936 16.5036 6.74185C16.0434 6.75559 15.5145 6.80367 14.9444 6.87236H14.91Z" fill="white"/>
<path d="M4.63984 4.71719C4.47003 4.71719 4.30403 4.66683 4.16283 4.57249C4.02164 4.47814 3.91159 4.34405 3.84661 4.18716C3.78162 4.03027 3.76462 3.85764 3.79775 3.69109C3.83088 3.52454 3.91265 3.37155 4.03273 3.25148C4.1528 3.1314 4.30579 3.04963 4.47234 3.0165C4.63889 2.98337 4.81152 3.00037 4.96841 3.06536C5.1253 3.13034 5.25939 3.24039 5.35374 3.38158C5.44808 3.52278 5.49843 3.68878 5.49843 3.85859C5.49843 4.08631 5.40798 4.30469 5.24696 4.46571C5.08594 4.62673 4.86755 4.71719 4.63984 4.71719ZM4.63984 3.5495C4.57871 3.5495 4.51895 3.56763 4.46812 3.60159C4.41729 3.63555 4.37767 3.68383 4.35428 3.74031C4.33088 3.79679 4.32476 3.85894 4.33669 3.91889C4.34861 3.97885 4.37805 4.03393 4.42128 4.07715C4.46451 4.12038 4.51958 4.14982 4.57954 4.16175C4.6395 4.17367 4.70165 4.16755 4.75813 4.14416C4.81461 4.12076 4.86288 4.08115 4.89684 4.03032C4.93081 3.97949 4.94894 3.91973 4.94894 3.85859C4.94912 3.81795 4.94125 3.77768 4.92578 3.74009C4.91031 3.70251 4.88755 3.66836 4.85881 3.63963C4.83007 3.61089 4.79592 3.58813 4.75834 3.57266C4.72076 3.55719 4.68048 3.54932 4.63984 3.5495V3.5495Z" fill="white"/>
<path d="M8.95234 6.46328C8.78253 6.46328 8.61653 6.41292 8.47533 6.31858C8.33414 6.22424 8.22409 6.09014 8.15911 5.93325C8.09412 5.77637 8.07712 5.60373 8.11025 5.43718C8.14338 5.27063 8.22515 5.11765 8.34523 4.99757C8.4653 4.87749 8.61829 4.79572 8.78484 4.76259C8.95139 4.72946 9.12402 4.74647 9.28091 4.81145C9.4378 4.87644 9.57189 4.98648 9.66624 5.12768C9.76058 5.26887 9.81093 5.43487 9.81093 5.60469C9.81093 5.8324 9.72048 6.05079 9.55946 6.2118C9.39844 6.37282 9.18005 6.46328 8.95234 6.46328ZM8.95234 5.29559C8.89121 5.29559 8.83145 5.31372 8.78062 5.34768C8.72979 5.38165 8.69017 5.42992 8.66678 5.4864C8.64338 5.54288 8.63726 5.60503 8.64919 5.66499C8.66111 5.72494 8.69055 5.78002 8.73378 5.82325C8.77701 5.86647 8.83208 5.89591 8.89204 5.90784C8.952 5.91977 9.01415 5.91365 9.07063 5.89025C9.12711 5.86686 9.17538 5.82724 9.20934 5.77641C9.24331 5.72558 9.26144 5.66582 9.26144 5.60469C9.26162 5.56404 9.25375 5.52377 9.23828 5.48619C9.22281 5.4486 9.20005 5.41446 9.17131 5.38572C9.14257 5.35698 9.10842 5.33422 9.07084 5.31875C9.03326 5.30328 8.99298 5.29541 8.95234 5.29559V5.29559Z" fill="white"/>
<path d="M14.3469 7.31875C14.1771 7.31875 14.0111 7.26839 13.8699 7.17405C13.7287 7.0797 13.6186 6.94561 13.5536 6.78872C13.4887 6.63184 13.4717 6.4592 13.5048 6.29265C13.5379 6.1261 13.6197 5.97311 13.7398 5.85304C13.8598 5.73296 14.0128 5.65119 14.1794 5.61806C14.3459 5.58493 14.5186 5.60193 14.6754 5.66692C14.8323 5.7319 14.9664 5.84195 15.0608 5.98315C15.1551 6.12434 15.2055 6.29034 15.2055 6.46015C15.2055 6.68787 15.115 6.90625 14.954 7.06727C14.793 7.22829 14.5746 7.31875 14.3469 7.31875ZM14.3469 6.15106C14.2857 6.15106 14.226 6.16919 14.1752 6.20315C14.1243 6.23712 14.0847 6.28539 14.0613 6.34187C14.0379 6.39835 14.0318 6.4605 14.0437 6.52046C14.0556 6.58041 14.0851 6.63549 14.1283 6.67872C14.1715 6.72194 14.2266 6.75138 14.2866 6.76331C14.3465 6.77523 14.4087 6.76911 14.4652 6.74572C14.5216 6.72232 14.5699 6.68271 14.6039 6.63188C14.6378 6.58105 14.656 6.52129 14.656 6.46015C14.6551 6.37846 14.6222 6.30035 14.5644 6.24258C14.5067 6.18481 14.4286 6.15195 14.3469 6.15106V6.15106Z" fill="white"/>
<path d="M5.46016 15.8227C5.29034 15.8227 5.12434 15.7723 4.98315 15.678C4.84195 15.5836 4.7319 15.4495 4.66692 15.2926C4.60193 15.1357 4.58493 14.9631 4.61806 14.7966C4.65119 14.63 4.73296 14.477 4.85304 14.3569C4.97312 14.2369 5.1261 14.1551 5.29265 14.122C5.4592 14.0888 5.63184 14.1058 5.78872 14.1708C5.94561 14.2358 6.07971 14.3459 6.17405 14.4871C6.26839 14.6282 6.31875 14.7942 6.31875 14.9641C6.31875 15.1918 6.22829 15.4102 6.06727 15.5712C5.90625 15.7322 5.68787 15.8227 5.46016 15.8227ZM5.46016 14.655C5.39902 14.655 5.33926 14.6731 5.28843 14.7071C5.2376 14.741 5.19798 14.7893 5.17459 14.8458C5.1512 14.9023 5.14507 14.9644 5.157 15.0244C5.16893 15.0843 5.19837 15.1394 5.24159 15.1826C5.28482 15.2259 5.3399 15.2553 5.39985 15.2672C5.45981 15.2791 5.52196 15.273 5.57844 15.2496C5.63492 15.2262 5.68319 15.1866 5.71716 15.1358C5.75112 15.085 5.76925 15.0252 5.76925 14.9641C5.76836 14.8824 5.7355 14.8043 5.67773 14.7465C5.61996 14.6887 5.54186 14.6559 5.46016 14.655V14.655Z" fill="white"/>
<path d="M15.9133 14.9867C15.7435 14.9867 15.5775 14.9364 15.4363 14.842C15.2951 14.7477 15.185 14.6136 15.12 14.4567C15.0551 14.2998 15.0381 14.1272 15.0712 13.9606C15.1043 13.7941 15.1861 13.6411 15.3062 13.521C15.4262 13.4009 15.5792 13.3192 15.7458 13.286C15.9123 13.2529 16.085 13.2699 16.2418 13.3349C16.3987 13.3999 16.5328 13.5099 16.6272 13.6511C16.7215 13.7923 16.7719 13.9583 16.7719 14.1281C16.7719 14.3558 16.6814 14.5742 16.5204 14.7352C16.3594 14.8963 16.141 14.9867 15.9133 14.9867ZM15.9133 13.819C15.8521 13.819 15.7924 13.8372 15.7416 13.8711C15.6907 13.9051 15.6511 13.9534 15.6277 14.0098C15.6043 14.0663 15.5982 14.1285 15.6101 14.1884C15.6221 14.2484 15.6515 14.3035 15.6947 14.3467C15.7379 14.3899 15.793 14.4194 15.853 14.4313C15.9129 14.4432 15.9751 14.4371 16.0316 14.4137C16.088 14.3903 16.1363 14.3507 16.1703 14.2998C16.2042 14.249 16.2224 14.1893 16.2224 14.1281C16.2226 14.0875 16.2147 14.0472 16.1992 14.0096C16.1837 13.972 16.161 13.9379 16.1322 13.9092C16.1035 13.8804 16.0694 13.8577 16.0318 13.8422C15.9942 13.8267 15.9539 13.8188 15.9133 13.819V13.819Z" fill="white"/>
<path d="M19.718 5.14297C19.5482 5.14297 19.3822 5.09261 19.241 4.99827C19.0998 4.90392 18.9897 4.76983 18.9247 4.61294C18.8597 4.45606 18.8427 4.28342 18.8759 4.11687C18.909 3.95032 18.9908 3.79733 19.1109 3.67726C19.2309 3.55718 19.3839 3.47541 19.5505 3.44228C19.717 3.40915 19.8896 3.42615 20.0465 3.49114C20.2034 3.55612 20.3375 3.66617 20.4319 3.80737C20.5262 3.94856 20.5766 4.11456 20.5766 4.28437C20.5766 4.39713 20.5544 4.50877 20.5112 4.61294C20.4681 4.71711 20.4048 4.81176 20.3251 4.89149C20.2454 4.97122 20.1507 5.03446 20.0465 5.07761C19.9424 5.12076 19.8307 5.14297 19.718 5.14297V5.14297ZM19.718 3.97528C19.6568 3.97528 19.5971 3.99341 19.5462 4.02737C19.4954 4.06134 19.4558 4.10961 19.4324 4.16609C19.409 4.22257 19.4029 4.28472 19.4148 4.34467C19.4267 4.40463 19.4562 4.45971 19.4994 4.50294C19.5426 4.54616 19.5977 4.5756 19.6577 4.58753C19.7176 4.59945 19.7798 4.59333 19.8363 4.56994C19.8927 4.54654 19.941 4.50693 19.975 4.4561C20.0089 4.40527 20.0271 4.34551 20.0271 4.28437C20.0251 4.203 19.992 4.12549 19.9344 4.06794C19.8768 4.01038 19.7993 3.9772 19.718 3.97528V3.97528Z" fill="white"/>
<path d="M6.58996 13.0483H6.54875C6.30148 13.0071 5.45662 12.8491 4.96207 12.4232C4.495 12.018 4.33015 11.7432 4.28894 11.6677C4.27225 11.6356 4.26203 11.6006 4.25887 11.5647C4.25571 11.5287 4.25966 11.4925 4.2705 11.458C4.28135 11.4236 4.29887 11.3916 4.32206 11.3639C4.34526 11.3363 4.37368 11.3134 4.40571 11.2967C4.43773 11.2801 4.47272 11.2698 4.50869 11.2667C4.54466 11.2635 4.5809 11.2675 4.61534 11.2783C4.64979 11.2892 4.68176 11.3067 4.70943 11.3299C4.7371 11.3531 4.75993 11.3815 4.77662 11.4135C4.78349 11.4204 4.90025 11.6471 5.32612 12.0111C5.7245 12.3614 6.54188 12.4919 6.63804 12.5125C6.67348 12.5173 6.70759 12.5293 6.73832 12.5476C6.76906 12.5658 6.7958 12.5901 6.81695 12.619C6.8381 12.6478 6.85323 12.6806 6.86144 12.7154C6.86964 12.7502 6.87076 12.7864 6.86471 12.8216C6.85241 12.8854 6.81825 12.943 6.76811 12.9844C6.71796 13.0257 6.65497 13.0483 6.58996 13.0483V13.0483Z" fill="white"/>
<path d="M20.9087 21.6879H3.79866C3.69581 21.688 3.59394 21.6678 3.4989 21.6285C3.40386 21.5892 3.3175 21.5315 3.24477 21.4588C3.17204 21.3861 3.11437 21.2997 3.07505 21.2047C3.03573 21.1096 3.01553 21.0078 3.01563 20.9049V17.9857C3.01563 17.9128 3.04457 17.8429 3.0961 17.7914C3.14762 17.7399 3.21751 17.7109 3.29037 17.7109C3.36324 17.7109 3.43313 17.7399 3.48465 17.7914C3.53618 17.8429 3.56512 17.9128 3.56512 17.9857V20.9049C3.56494 20.9365 3.57104 20.9679 3.58305 20.9971C3.59507 21.0264 3.61277 21.0529 3.63513 21.0753C3.65749 21.0977 3.68407 21.1154 3.71332 21.1274C3.74256 21.1394 3.77391 21.1455 3.80553 21.1453H20.9087C20.9403 21.1455 20.9716 21.1394 21.0009 21.1274C21.0301 21.1154 21.0567 21.0977 21.0791 21.0753C21.1014 21.0529 21.1191 21.0264 21.1312 20.9971C21.1432 20.9679 21.1493 20.9365 21.1491 20.9049V17.9857C21.1491 17.9128 21.178 17.8429 21.2296 17.7914C21.2811 17.7399 21.351 17.7109 21.4238 17.7109C21.4967 17.7109 21.5666 17.7399 21.6181 17.7914C21.6696 17.8429 21.6986 17.9128 21.6986 17.9857V20.9049C21.6948 21.1126 21.6102 21.3106 21.4627 21.4569C21.3152 21.6031 21.1164 21.686 20.9087 21.6879V21.6879Z" fill="white"/>
<path d="M8.67363 20.6937C7.95928 20.6937 7.38918 20.3228 6.88089 20C6.48937 19.7458 6.12533 19.5123 5.74068 19.4711C5.45219 19.4367 5.14997 19.581 4.82714 19.7252C4.33946 19.9519 3.72814 20.2266 3.11682 19.8008C3.08006 19.7757 3.05013 19.7418 3.02974 19.7022C3.00935 19.6626 2.99915 19.6186 3.00006 19.5741V17.3143C2.99996 17.2114 3.02016 17.1096 3.05948 17.0145C3.0988 16.9195 3.15647 16.8331 3.2292 16.7604C3.30193 16.6877 3.38829 16.63 3.48333 16.5907C3.57837 16.5514 3.68024 16.5312 3.78309 16.5313H20.9069C21.0097 16.5312 21.1116 16.5514 21.2066 16.5907C21.3017 16.63 21.388 16.6877 21.4607 16.7604C21.5335 16.8331 21.5911 16.9195 21.6305 17.0145C21.6698 17.1096 21.69 17.2114 21.6899 17.3143V19.5741C21.6897 19.6324 21.6709 19.6891 21.6363 19.736C21.6018 19.7829 21.5532 19.8176 21.4976 19.8351C20.845 20.0412 20.4398 19.7664 20.0895 19.526C19.9312 19.4076 19.758 19.3106 19.5743 19.2375C19.2446 19.1208 18.9012 19.1345 18.4822 19.2856C18.4476 19.3015 18.4101 19.31 18.3721 19.3106C18.334 19.3113 18.2963 19.304 18.2612 19.2893C18.2261 19.2745 18.1945 19.2527 18.1683 19.2251C18.1421 19.1975 18.1219 19.1648 18.109 19.129C18.0961 19.0932 18.0908 19.0551 18.0934 19.0172C18.096 18.9792 18.1065 18.9422 18.1241 18.9085C18.1418 18.8748 18.1662 18.8451 18.1959 18.8214C18.2257 18.7976 18.26 18.7803 18.2967 18.7705C18.8394 18.5713 19.3064 18.5575 19.7598 18.7224C19.9864 18.8121 20.201 18.9298 20.3986 19.0727C20.6664 19.2581 20.8588 19.3886 21.1473 19.3543V17.3074C21.1474 17.2758 21.1413 17.2445 21.1293 17.2152C21.1173 17.186 21.0996 17.1594 21.0773 17.137C21.0549 17.1147 21.0283 17.097 20.9991 17.0849C20.9698 17.0729 20.9385 17.0668 20.9069 17.067H3.79683C3.76521 17.0668 3.73386 17.0729 3.70461 17.0849C3.67536 17.097 3.64879 17.1147 3.62643 17.137C3.60407 17.1594 3.58637 17.186 3.57435 17.2152C3.56233 17.2445 3.55624 17.2758 3.55642 17.3074V19.4161C3.85178 19.5535 4.16087 19.4299 4.60734 19.2238C4.96451 19.0589 5.36977 18.8735 5.80937 18.9216C6.31765 18.9765 6.75725 19.265 7.18312 19.5398C7.66393 19.8488 8.12413 20.1442 8.6805 20.1442C9.47727 20.1442 10.171 19.8282 10.8442 19.526C11.4349 19.2581 11.9912 19.004 12.5751 18.9765C13.1933 18.949 13.7565 19.1895 14.2991 19.423C14.8005 19.6359 15.2676 19.842 15.7553 19.8282C16.2292 19.8145 16.6963 19.581 17.2115 19.2993C17.2744 19.2725 17.3451 19.27 17.4097 19.2925C17.4743 19.315 17.5282 19.3608 17.5609 19.4209C17.5935 19.4811 17.6025 19.5512 17.5862 19.6177C17.5698 19.6841 17.5293 19.742 17.4725 19.7802C16.9161 20.0824 16.3666 20.3571 15.769 20.3709C15.1715 20.3846 14.6082 20.1511 14.0793 19.9244C13.571 19.7046 13.0902 19.4985 12.5957 19.526C12.1149 19.5466 11.5997 19.7802 11.064 20.0274C10.3702 20.3365 9.58717 20.6937 8.67363 20.6937Z" fill="white"/>
</svg>
